<svg xmlns="http://www.w3.org/2000/svg" width="70" height="70" viewBox="0 0 70 70"><defs><style>.a{fill:#ffd54f;}.b{fill:#263238;}.c{fill:#fff;}</style></defs><g transform="translate(-783 -773)"><path class="a" d="M45.816,0l17.5,13.369L70,35,63.316,56.631,45.816,70H24.184L6.684,56.631,0,35,6.684,13.369,24.184,0Z" transform="translate(783 773)"/><path class="b" d="M24.861,2,8.407,14.57,2.093,35,8.407,55.43,24.861,68H45.139L61.593,55.43,67.907,35,61.593,14.57,45.139,2H24.861m-.677-2H45.816l17.5,13.369L70,35,63.316,56.631,45.816,70H24.184L6.684,56.631,0,35,6.684,13.369Z" transform="translate(783 773)"/><path class="b" d="M9.35-6.38H6.05l.1-1.53H3.91l.02,1.53H.89l.46,3.49H2.66l.12-1.89H6.99L5.96.58h.9ZM17.74-4.3H12.27l.15,1.18h1.95L14.62-.2H12.71l.07.68H17.2l.07-.68H15.34l.27-2.92H17.6ZM28.86-2.79h-.79L27.92-1.6h.75Zm-1.01,0h-.79L26.93-1.6h.75Zm1.24-4.18H21.1l.23,1.8h5.49L24.33.35h1.12l1.27-2.1.18-1.22h.56l1.3-2.14ZM8.95,9.01H5.93l.13-1.56,2.59-.22L8.84,5.3l-7.59.87.2,1.67,2.67-.23.13,1.4H1.19l.2,1.36H4.37l.28,3.01h.88l.27-3.01H8.72ZM19.16,6.18H13.18l.1-1.1H11.06l.69,5.42h1.07l.22-2.61h2.82l-.65,5.59h.82l1.65-5.59h1.23Zm6.2,2.41H24.11l.08,2.46h.91Zm2.39-.06H26.51l-.22,4.27H23.07l.09.67h3.69Zm-3.94,2.52-.1-2.47H22.45l.48,2.47ZM38.36,9.69,33.57,7.96l-.02-2.6H31.33l1.27,8.02h1l-.02-3.56,4.58,1.09ZM49.29,6.27h-.85l.11-1.03H46.49l.04,1.03H43.32l.06,1.6h3.23l.11,2.31H43.47l.12,3.3h4.09l.22-2.14h.83l.18-1.16h-.88l.24-2.31h.8Zm-6.46-.84H40.78l1.14,8.2.79-.01Zm3.99,7.22H44.6l.02-1.32h2.14ZM9.13,18.57H1.15l.17,1.7H7.13l.02.99H8.78Zm-.72,7.01-5.54.01-.02-1.25H1.51l.26,2.24,6.51-.01Zm10.7-6.31H13.46l.06-1.17-1.99-.01.13,1.18h-.9l.26,1.59h.82l.29,2.64h4.91L17,25.65H12.23l.07.94,5.59.02.65-4.42H13.32l.07-1.33h5.5Zm9.88-.85-7.6.02.18,1.55H27l.01.83,1.62-.02Zm-.45,3.94H23.25V20.72h-1.6l.31,2.92,5.17-.02-.03,1.97H22.17l.12.95,5.66.01Z" transform="translate(793 797)"/><path class="c" d="M5,0A5,5,0,1,1,0,5,5,5,0,0,1,5,0Z" transform="translate(826 814)"/><path class="b" d="M2.5,0,5,5H0Z" transform="translate(834 817) rotate(90)"/></g></svg>