<svg xmlns="http://www.w3.org/2000/svg" width="133.664" height="24.896" viewBox="0 0 133.664 24.896"><defs><style>.a{fill:#db6294;}.b{fill:#465a9b;}</style></defs><g transform="translate(-129.336 -4310.504)"><path class="a" d="M18.288-14.976v-3.6H5.592v3.6ZM19.512.048,18.888-3.48a24.348,24.348,0,0,1-4.272.384C10.7-3.1,7.848-4.1,6.024-6.12L3.336-3.72Q7.152.528,14.544.528A28.023,28.023,0,0,0,19.512.048ZM39.984-17.136l-4.92-3.36L33.048-17.52l4.92,3.36Zm2.3,8.808A5.209,5.209,0,0,0,40.224-12.6a7.19,7.19,0,0,0-4.608-1.512A13.121,13.121,0,0,0,28.1-11.4l2.088,2.928a9.445,9.445,0,0,1,5.4-2.04,4.136,4.136,0,0,1,2.04.48,1.886,1.886,0,0,1,1.056,1.7c0,2.424-1.392,4.9-4.176,7.464l2.424,2.64Q42.3-3.12,42.288-8.328ZM64.968-1.44a7.178,7.178,0,0,1-5.016-4.488,19.119,19.119,0,0,1-1.056-6.96,55.181,55.181,0,0,1,.432-6.456l-3.576-.408a58.845,58.845,0,0,0-.456,6.864q0,12.6,8.76,14.928Zm24.144-9.336v-3.36H86.856l-.168-1.128h2.424v-3.36H86.16l-.24-1.608-3.552.48.144,1.128H78.36v3.36h4.68l.168,1.128H78.36v3.36h5.352l.168,1.128A6.914,6.914,0,0,0,80.664-7.3,6.141,6.141,0,0,0,79.44-3.552c0,2.472,1.248,4.464,3.72,5.952L85.008-.7A3.322,3.322,0,0,1,83.04-3.552a2.6,2.6,0,0,1,1.7-2.52,11.241,11.241,0,0,1,3.24-.6l-.624-4.1Zm16.272,4.968a5.651,5.651,0,0,0-1.1-3.384c-.12-.168-.792-.912-2.016-2.208a3.291,3.291,0,0,1-1.1-2.112,2.6,2.6,0,0,1,.672-1.824,3.23,3.23,0,0,1,1.728-.96l-.744-3.336a6.38,6.38,0,0,0-3.624,2.112,5.815,5.815,0,0,0-1.44,3.936,5.276,5.276,0,0,0,1.1,3.288l2.016,2.184a3.433,3.433,0,0,1,1.1,2.3,2.993,2.993,0,0,1-.864,2.136A4.249,4.249,0,0,1,99.12-2.5l.936,3.288a7.552,7.552,0,0,0,3.792-2.4A6.3,6.3,0,0,0,105.384-5.808ZM123.624.624v-19.3h-3.432v10.92l-11.04-11.28L109.128,0h3.432l.024-10.656ZM135-5.808a5.651,5.651,0,0,0-1.1-3.384c-.12-.168-.792-.912-2.016-2.208a3.291,3.291,0,0,1-1.1-2.112,2.6,2.6,0,0,1,.672-1.824,3.23,3.23,0,0,1,1.728-.96l-.744-3.336a6.38,6.38,0,0,0-3.624,2.112,5.815,5.815,0,0,0-1.44,3.936,5.276,5.276,0,0,0,1.1,3.288l2.016,2.184a3.432,3.432,0,0,1,1.1,2.3,2.993,2.993,0,0,1-.864,2.136A4.249,4.249,0,0,1,128.736-2.5l.936,3.288a7.552,7.552,0,0,0,3.792-2.4A6.3,6.3,0,0,0,135-5.808Z" transform="translate(128 4331)"/><path class="b" d="M18.288-14.976v-3.6H5.592v3.6ZM19.512.048,18.888-3.48a24.348,24.348,0,0,1-4.272.384C10.7-3.1,7.848-4.1,6.024-6.12L3.336-3.72Q7.152.528,14.544.528A28.023,28.023,0,0,0,19.512.048ZM39.984-17.136l-4.92-3.36L33.048-17.52l4.92,3.36Zm2.3,8.808A5.209,5.209,0,0,0,40.224-12.6a7.19,7.19,0,0,0-4.608-1.512A13.121,13.121,0,0,0,28.1-11.4l2.088,2.928a9.445,9.445,0,0,1,5.4-2.04,4.136,4.136,0,0,1,2.04.48,1.886,1.886,0,0,1,1.056,1.7c0,2.424-1.392,4.9-4.176,7.464l2.424,2.64Q42.3-3.12,42.288-8.328ZM64.968-1.44a7.178,7.178,0,0,1-5.016-4.488,19.119,19.119,0,0,1-1.056-6.96,55.181,55.181,0,0,1,.432-6.456l-3.576-.408a58.845,58.845,0,0,0-.456,6.864q0,12.6,8.76,14.928Zm24.144-9.336v-3.36H86.856l-.168-1.128h2.424v-3.36H86.16l-.24-1.608-3.552.48.144,1.128H78.36v3.36h4.68l.168,1.128H78.36v3.36h5.352l.168,1.128A6.914,6.914,0,0,0,80.664-7.3,6.141,6.141,0,0,0,79.44-3.552c0,2.472,1.248,4.464,3.72,5.952L85.008-.7A3.322,3.322,0,0,1,83.04-3.552a2.6,2.6,0,0,1,1.7-2.52,11.241,11.241,0,0,1,3.24-.6l-.624-4.1Zm16.272,4.968a5.651,5.651,0,0,0-1.1-3.384c-.12-.168-.792-.912-2.016-2.208a3.291,3.291,0,0,1-1.1-2.112,2.6,2.6,0,0,1,.672-1.824,3.23,3.23,0,0,1,1.728-.96l-.744-3.336a6.38,6.38,0,0,0-3.624,2.112,5.815,5.815,0,0,0-1.44,3.936,5.276,5.276,0,0,0,1.1,3.288l2.016,2.184a3.433,3.433,0,0,1,1.1,2.3,2.993,2.993,0,0,1-.864,2.136A4.249,4.249,0,0,1,99.12-2.5l.936,3.288a7.552,7.552,0,0,0,3.792-2.4A6.3,6.3,0,0,0,105.384-5.808ZM123.624.624v-19.3h-3.432v10.92l-11.04-11.28L109.128,0h3.432l.024-10.656ZM135-5.808a5.651,5.651,0,0,0-1.1-3.384c-.12-.168-.792-.912-2.016-2.208a3.291,3.291,0,0,1-1.1-2.112,2.6,2.6,0,0,1,.672-1.824,3.23,3.23,0,0,1,1.728-.96l-.744-3.336a6.38,6.38,0,0,0-3.624,2.112,5.815,5.815,0,0,0-1.44,3.936,5.276,5.276,0,0,0,1.1,3.288l2.016,2.184a3.432,3.432,0,0,1,1.1,2.3,2.993,2.993,0,0,1-.864,2.136A4.249,4.249,0,0,1,128.736-2.5l.936,3.288a7.552,7.552,0,0,0,3.792-2.4A6.3,6.3,0,0,0,135-5.808Z" transform="translate(126 4333)"/></g></svg>