<svg xmlns="http://www.w3.org/2000/svg" width="96.752" height="24.992" viewBox="0 0 96.752 24.992"><defs><style>.a{fill:#db6294;}.b{fill:#465a9b;}</style></defs><g transform="translate(-131.6 -1714.408)"><path class="a" d="M22.56,2.16V-19.848H13.8a78.3,78.3,0,0,1-1.008,14.28V-6.912H11.76v-8.976h1.152V-18.84H11.76v-1.32H8.64v1.32H5.4v-1.32H2.28v1.32H1.128v2.952H2.28v8.976H1.008v3.12H3.72L.6.336,3.024,2.064l3.12-4.152-2.376-1.7h8.64c-.216.864-.456,1.7-.72,2.544L9.864-3.672l-2.328,1.9L9.456.792,11.568-.936l-.048.144L14.64.528a46.448,46.448,0,0,0,1.32-6.264h2.712V-8.688H16.32c.072-.744.12-1.512.168-2.3h2.184v-2.9H16.608q.036-1.188.072-2.592h2.64V2.16ZM8.64-6.912H5.4v-1.44H7.968v-2.64H5.4v-1.056H7.968v-2.64H5.4v-1.2H8.64ZM46.608,2.4V-19.584H36.84v9.6h6.528V2.4ZM41.064.96v-9.6H30.936V.96ZM35.328-9.984v-9.6h-9.72V2.4h3.24V-9.984Zm8.04-2.712H39.96v-.984h2.712v-2.208H39.96v-.792h3.408Zm-11.16,0h-3.36v-.984H31.56v-2.208H28.848v-.792h3.36ZM38.256-1.7H33.744V-2.736h3.7V-5.064h-3.7v-.912h4.512ZM71.5.192,68.28-4.1l1.8-1.848L68.064-7.92H70.2V-19.8H58.8V2.064L65.232.312l-.864-3-2.208.624V-7.92h5.16L63.864-4.392l4.944,6.6ZM57.84-8.112a14.713,14.713,0,0,0-.528-3.7c-.168-.672-.312-1.128-.384-1.368V-19.8h-7.56V2.04h3.12V-16.68h1.2v3.96c.024.1.048.168.072.24a15.244,15.244,0,0,1,.84,4.44,9.137,9.137,0,0,1-1.2,4.512l2.832,1.536A12.15,12.15,0,0,0,57.84-8.112Zm9-2.928H62.16v-1.44h3.96v-2.88H62.16v-1.32h4.68ZM95.352.744,94.56-2.52a26.959,26.959,0,0,1-6.5.888A14.56,14.56,0,0,1,85.728-1.8V-5.208h6.5v-3.36h-6.5v-2.16h5.9V-12.72h3.24v-5.832H85.728v-2.04h-3.36v2.04h-9v5.832h3.144v1.992h5.856V-2.76a9.846,9.846,0,0,1-3.36-2.5l1.128-2.232L77.136-9,72.5.12l3,1.512,1.9-3.744a14.756,14.756,0,0,0,10.584,3.84A31.667,31.667,0,0,0,95.352.744Zm-4.08-14.832H76.848v-1.1H91.272Z" transform="translate(133 1735)"/><path class="b" d="M22.56,2.16V-19.848H13.8a78.3,78.3,0,0,1-1.008,14.28V-6.912H11.76v-8.976h1.152V-18.84H11.76v-1.32H8.64v1.32H5.4v-1.32H2.28v1.32H1.128v2.952H2.28v8.976H1.008v3.12H3.72L.6.336,3.024,2.064l3.12-4.152-2.376-1.7h8.64c-.216.864-.456,1.7-.72,2.544L9.864-3.672l-2.328,1.9L9.456.792,11.568-.936l-.048.144L14.64.528a46.448,46.448,0,0,0,1.32-6.264h2.712V-8.688H16.32c.072-.744.12-1.512.168-2.3h2.184v-2.9H16.608q.036-1.188.072-2.592h2.64V2.16ZM8.64-6.912H5.4v-1.44H7.968v-2.64H5.4v-1.056H7.968v-2.64H5.4v-1.2H8.64ZM46.608,2.4V-19.584H36.84v9.6h6.528V2.4ZM41.064.96v-9.6H30.936V.96ZM35.328-9.984v-9.6h-9.72V2.4h3.24V-9.984Zm8.04-2.712H39.96v-.984h2.712v-2.208H39.96v-.792h3.408Zm-11.16,0h-3.36v-.984H31.56v-2.208H28.848v-.792h3.36ZM38.256-1.7H33.744V-2.736h3.7V-5.064h-3.7v-.912h4.512ZM71.5.192,68.28-4.1l1.8-1.848L68.064-7.92H70.2V-19.8H58.8V2.064L65.232.312l-.864-3-2.208.624V-7.92h5.16L63.864-4.392l4.944,6.6ZM57.84-8.112a14.713,14.713,0,0,0-.528-3.7c-.168-.672-.312-1.128-.384-1.368V-19.8h-7.56V2.04h3.12V-16.68h1.2v3.96c.024.1.048.168.072.24a15.244,15.244,0,0,1,.84,4.44,9.137,9.137,0,0,1-1.2,4.512l2.832,1.536A12.15,12.15,0,0,0,57.84-8.112Zm9-2.928H62.16v-1.44h3.96v-2.88H62.16v-1.32h4.68ZM95.352.744,94.56-2.52a26.959,26.959,0,0,1-6.5.888A14.56,14.56,0,0,1,85.728-1.8V-5.208h6.5v-3.36h-6.5v-2.16h5.9V-12.72h3.24v-5.832H85.728v-2.04h-3.36v2.04h-9v5.832h3.144v1.992h5.856V-2.76a9.846,9.846,0,0,1-3.36-2.5l1.128-2.232L77.136-9,72.5.12l3,1.512,1.9-3.744a14.756,14.756,0,0,0,10.584,3.84A31.667,31.667,0,0,0,95.352.744Zm-4.08-14.832H76.848v-1.1H91.272Z" transform="translate(131 1737)"/></g></svg>