<svg xmlns="http://www.w3.org/2000/svg" width="185.48" height="24.512" viewBox="0 0 185.48 24.512"><defs><style>.a{fill:#db6294;}.b{fill:#465a9b;}</style></defs><g transform="translate(-12.856 -2875.504)"><path class="a" d="M21.648-8.4A8.43,8.43,0,0,0,19.8-13.872a7.822,7.822,0,0,0-5.04-2.712,21.406,21.406,0,0,0-.432-3.72l-3.528.768a19.6,19.6,0,0,1,.36,3.1,16.236,16.236,0,0,0-4.7,1.824v-1.44h-3.6V-5.4h3.6v-4.968a15.75,15.75,0,0,1,4.68-2.328c-.312,5.28-1.416,9.456-3.36,12.5L10.8,1.752c2.328-3.648,3.624-8.544,3.936-14.664a4.14,4.14,0,0,1,2.472,1.584A4.963,4.963,0,0,1,18.072-8.4a7.61,7.61,0,0,1-1.344,4.176l3.024,1.968A11.125,11.125,0,0,0,21.648-8.4Zm18.336-8.736-4.92-3.36L33.048-17.52l4.92,3.36Zm2.3,8.808A5.209,5.209,0,0,0,40.224-12.6a7.19,7.19,0,0,0-4.608-1.512A13.121,13.121,0,0,0,28.1-11.4l2.088,2.928a9.445,9.445,0,0,1,5.4-2.04,4.136,4.136,0,0,1,2.04.48,1.886,1.886,0,0,1,1.056,1.7c0,2.424-1.392,4.9-4.176,7.464l2.424,2.64Q42.3-3.12,42.288-8.328ZM68.856.936,67.824-2.5a6.615,6.615,0,0,1-1.9.288,4.894,4.894,0,0,1-2.76-.816A4.758,4.758,0,0,1,61.3-5.208L58.824-4.1l7.8-10.68H61.992l1.848-2.592L59.952-20.16l-2.088,2.928,3.408,2.448h-7.8l-.024,3.576h6.1L51.768-.576l2.9,2.136,3.552-4.848A8.61,8.61,0,0,0,61.416.144,8.444,8.444,0,0,0,65.9,1.392,9.7,9.7,0,0,0,68.856.936ZM93.336-.1l-1.608-3.24a7.353,7.353,0,0,1-3.312.912q-3.384,0-5.328-4.032L80.424-5.184,85.68-18.6l-3.36-1.32L74.736-.48,78.1.84l2.016-5.208A11.493,11.493,0,0,0,83.5-.408a8.3,8.3,0,0,0,4.92,1.584A11.113,11.113,0,0,0,93.336-.1Zm20.376-13.56v-3.6h-5.5l.264-2.4-3.576-.408-.312,2.808h-3.384v3.6h2.976l-.72,6.312a11.034,11.034,0,0,1,3.336.672,2.626,2.626,0,0,1,1.752,2.592c0,1.176-.72,2.16-2.136,2.952l1.776,3.12A8.108,8.108,0,0,0,111-.5a6.069,6.069,0,0,0,1.152-3.528,6.22,6.22,0,0,0-1.3-3.888,7.213,7.213,0,0,0-3.432-2.424l.384-3.312Zm23.208,3.7L135.7-13.344a19.694,19.694,0,0,0-3.5,1.68,9.421,9.421,0,0,0-1.32-1.128l.432-1.7h3.168v-3.6h-2.256l.36-1.392-3.5-.888L128.5-18.1h-2.472v3.6h1.56l-.912,3.6a10.781,10.781,0,0,1,2.736,1.512,7.168,7.168,0,0,0-2.016,4.92,5.7,5.7,0,0,0,2.04,4.488,8.168,8.168,0,0,0,4.632,1.992l.432-3.552a5.218,5.218,0,0,1-2.352-.864,2.485,2.485,0,0,1-1.152-2.088,3.373,3.373,0,0,1,.672-1.992,9.515,9.515,0,0,1,.672,1.44l3.408-1.2a14.316,14.316,0,0,0-1.272-2.592A16.262,16.262,0,0,1,136.92-9.96ZM166.632,1.128V-18.888h-9.5V1.128Zm-10.32-9.576v-3.12h-4.056a27.706,27.706,0,0,0,.216-2.784h3.288v-3.12h-6.576l.672-1.92-2.928-1.056-2.184,6.1h4.368a22.263,22.263,0,0,1-.264,2.784h-4.032v3.12h3.432a22.023,22.023,0,0,1-3.288,7.392L147.7.888a26.1,26.1,0,0,0,3.984-9.336Zm.072,6.192-2.544-3.6-2.544,1.8,2.544,3.6Zm6.888.144h-2.784V-15.648h2.784Zm23.064-3.216a8.491,8.491,0,0,0-1.08-4.056,10.354,10.354,0,0,0-2.664-3.264l3.24-6.528H175.2v3.6h4.824l-2.136,4.3A12.886,12.886,0,0,1,181.1-9.072a5.534,5.534,0,0,1,1.608,3.48,4.584,4.584,0,0,0-3.864-2.016,4.8,4.8,0,0,0-3.264,1.224,3.953,3.953,0,0,0-1.464,3.12A4.881,4.881,0,0,0,175.56.384a5.069,5.069,0,0,0,3.7,1.416,6.834,6.834,0,0,0,5.088-2.016A7,7,0,0,0,186.336-5.328ZM182.352-3.7a3.106,3.106,0,0,1-3.1,1.9c-1.032,0-1.536-.48-1.536-1.464a.721.721,0,0,1,.384-.6,1.4,1.4,0,0,1,.744-.264,1.446,1.446,0,0,1,.96.384,2.09,2.09,0,0,1,.624.864Z" transform="translate(12 2896)"/><path class="b" d="M21.648-8.4A8.43,8.43,0,0,0,19.8-13.872a7.822,7.822,0,0,0-5.04-2.712,21.406,21.406,0,0,0-.432-3.72l-3.528.768a19.6,19.6,0,0,1,.36,3.1,16.236,16.236,0,0,0-4.7,1.824v-1.44h-3.6V-5.4h3.6v-4.968a15.75,15.75,0,0,1,4.68-2.328c-.312,5.28-1.416,9.456-3.36,12.5L10.8,1.752c2.328-3.648,3.624-8.544,3.936-14.664a4.14,4.14,0,0,1,2.472,1.584A4.963,4.963,0,0,1,18.072-8.4a7.61,7.61,0,0,1-1.344,4.176l3.024,1.968A11.125,11.125,0,0,0,21.648-8.4Zm18.336-8.736-4.92-3.36L33.048-17.52l4.92,3.36Zm2.3,8.808A5.209,5.209,0,0,0,40.224-12.6a7.19,7.19,0,0,0-4.608-1.512A13.121,13.121,0,0,0,28.1-11.4l2.088,2.928a9.445,9.445,0,0,1,5.4-2.04,4.136,4.136,0,0,1,2.04.48,1.886,1.886,0,0,1,1.056,1.7c0,2.424-1.392,4.9-4.176,7.464l2.424,2.64Q42.3-3.12,42.288-8.328ZM68.856.936,67.824-2.5a6.615,6.615,0,0,1-1.9.288,4.894,4.894,0,0,1-2.76-.816A4.758,4.758,0,0,1,61.3-5.208L58.824-4.1l7.8-10.68H61.992l1.848-2.592L59.952-20.16l-2.088,2.928,3.408,2.448h-7.8l-.024,3.576h6.1L51.768-.576l2.9,2.136,3.552-4.848A8.61,8.61,0,0,0,61.416.144,8.444,8.444,0,0,0,65.9,1.392,9.7,9.7,0,0,0,68.856.936ZM93.336-.1l-1.608-3.24a7.353,7.353,0,0,1-3.312.912q-3.384,0-5.328-4.032L80.424-5.184,85.68-18.6l-3.36-1.32L74.736-.48,78.1.84l2.016-5.208A11.493,11.493,0,0,0,83.5-.408a8.3,8.3,0,0,0,4.92,1.584A11.113,11.113,0,0,0,93.336-.1Zm20.376-13.56v-3.6h-5.5l.264-2.4-3.576-.408-.312,2.808h-3.384v3.6h2.976l-.72,6.312a11.034,11.034,0,0,1,3.336.672,2.626,2.626,0,0,1,1.752,2.592c0,1.176-.72,2.16-2.136,2.952l1.776,3.12A8.108,8.108,0,0,0,111-.5a6.069,6.069,0,0,0,1.152-3.528,6.22,6.22,0,0,0-1.3-3.888,7.213,7.213,0,0,0-3.432-2.424l.384-3.312Zm23.208,3.7L135.7-13.344a19.694,19.694,0,0,0-3.5,1.68,9.421,9.421,0,0,0-1.32-1.128l.432-1.7h3.168v-3.6h-2.256l.36-1.392-3.5-.888L128.5-18.1h-2.472v3.6h1.56l-.912,3.6a10.781,10.781,0,0,1,2.736,1.512,7.168,7.168,0,0,0-2.016,4.92,5.7,5.7,0,0,0,2.04,4.488,8.168,8.168,0,0,0,4.632,1.992l.432-3.552a5.218,5.218,0,0,1-2.352-.864,2.485,2.485,0,0,1-1.152-2.088,3.373,3.373,0,0,1,.672-1.992,9.515,9.515,0,0,1,.672,1.44l3.408-1.2a14.316,14.316,0,0,0-1.272-2.592A16.262,16.262,0,0,1,136.92-9.96ZM166.632,1.128V-18.888h-9.5V1.128Zm-10.32-9.576v-3.12h-4.056a27.706,27.706,0,0,0,.216-2.784h3.288v-3.12h-6.576l.672-1.92-2.928-1.056-2.184,6.1h4.368a22.263,22.263,0,0,1-.264,2.784h-4.032v3.12h3.432a22.023,22.023,0,0,1-3.288,7.392L147.7.888a26.1,26.1,0,0,0,3.984-9.336Zm.072,6.192-2.544-3.6-2.544,1.8,2.544,3.6Zm6.888.144h-2.784V-15.648h2.784Zm23.064-3.216a8.491,8.491,0,0,0-1.08-4.056,10.354,10.354,0,0,0-2.664-3.264l3.24-6.528H175.2v3.6h4.824l-2.136,4.3A12.886,12.886,0,0,1,181.1-9.072a5.534,5.534,0,0,1,1.608,3.48,4.584,4.584,0,0,0-3.864-2.016,4.8,4.8,0,0,0-3.264,1.224,3.953,3.953,0,0,0-1.464,3.12A4.881,4.881,0,0,0,175.56.384a5.069,5.069,0,0,0,3.7,1.416,6.834,6.834,0,0,0,5.088-2.016A7,7,0,0,0,186.336-5.328ZM182.352-3.7a3.106,3.106,0,0,1-3.1,1.9c-1.032,0-1.536-.48-1.536-1.464a.721.721,0,0,1,.384-.6,1.4,1.4,0,0,1,.744-.264,1.446,1.446,0,0,1,.96.384,2.09,2.09,0,0,1,.624.864Z" transform="translate(10 2898)"/></g></svg>