<svg xmlns="http://www.w3.org/2000/svg" width="92.504" height="24.672" viewBox="0 0 92.504 24.672"><defs><style>.a{fill:#db6294;}.b{fill:#465a9b;}</style></defs><g transform="translate(-16.28 -748.008)"><path class="a" d="M19.8-16.968l-1.992-3.024L2.28-9.744l1.992,3,6.648-4.392V1.68h3.6V-13.488Zm25.1,1.344L43.2-17.28l-1.68,1.728-1.7-1.656-1.68,1.7,1.7,1.656,1.68-1.7L43.248-13.9ZM46.392-5.256A73.4,73.4,0,0,0,33.408-15.12L25.68-9.384,27.84-6.5l5.784-4.3a76.133,76.133,0,0,1,10.32,8.184ZM57.816-15.6,53.28-18.96l-2.136,2.9L55.7-12.72ZM68.5-10.488,65.9-12.96A57.586,57.586,0,0,1,52.056-2.424L53.784.744A60.514,60.514,0,0,0,68.5-10.488ZM92.784-9.1l-9.432-4.512-1.1,2.28v-8.448h-3.6V1.392h3.6V-10.152l9,4.3Z" transform="translate(16 768)"/><path class="b" d="M19.8-16.968l-1.992-3.024L2.28-9.744l1.992,3,6.648-4.392V1.68h3.6V-13.488Zm25.1,1.344L43.2-17.28l-1.68,1.728-1.7-1.656-1.68,1.7,1.7,1.656,1.68-1.7L43.248-13.9ZM46.392-5.256A73.4,73.4,0,0,0,33.408-15.12L25.68-9.384,27.84-6.5l5.784-4.3a76.133,76.133,0,0,1,10.32,8.184ZM57.816-15.6,53.28-18.96l-2.136,2.9L55.7-12.72ZM68.5-10.488,65.9-12.96A57.586,57.586,0,0,1,52.056-2.424L53.784.744A60.514,60.514,0,0,0,68.5-10.488ZM92.784-9.1l-9.432-4.512-1.1,2.28v-8.448h-3.6V1.392h3.6V-10.152l9,4.3Z" transform="translate(14 771)"/></g></svg>