<svg xmlns="http://www.w3.org/2000/svg" width="232.839" height="41.782" viewBox="0 0 232.839 41.782">
  <g id="logo" transform="translate(-76.511 -161.613)">
    <g id="グループ_31" data-name="グループ 31" transform="translate(175.567 161.613)">
      <path id="パス_106" data-name="パス 106" d="M370.435,162.956h5.372l-.063-1.343H379.6l-.063,1.343H384.7l-.506,3.808H382.57l.111-1.659H372.663l.095,1.628h-1.8Zm1.978,12.514-.553-4.914h4.234v-.616h-3.16l-.034-4.25h9.449l-.661,4.25h-3.16v.616h4.029l-.537,4.914Zm1.47-3.3.111,2.038h6.589l.032-2.038Zm1.182-3.839H380.2l.032-.932h-5.151Z" transform="translate(-370.435 -161.613)" fill="#284582"/>
      <path id="パス_107" data-name="パス 107" d="M421.47,174.113h.521L420.8,161.788h2.591l-.234,12.325h.537l-.284-5.341H425.2l.032,6.478h-4.945l-1.122-6.526h1.77Zm8.719-10.982h2.891l-.316,2.291h-1.722l1.406,3.113h-1.88l-1.864-2.749-2.338,2.8h-1.8l1.833-3.16h-1.675v-2.291h2.844l.032-1.422h2.765Zm-.977,12.277.3-4.914h-4.029l.047-1.706h6.7l-.237,1.706h-.459l-.822,4.914Zm-.458-.316h-3.081l-.126-4.282h3.6Zm-1.074-.932v-1.991h-.932l-.048,1.991Z" transform="translate(-403.124 -161.677)" fill="#284582"/>
      <path id="パス_108" data-name="パス 108" d="M474.485,165.581l-.095,1.217h4.74l-1.5,7.474h-1.359l-.19-5.072h-2.212l-.49,6.336h-1.454L471.3,169.2h-2.2l-.126,5.072h-1.406l-.824-7.474h4.629l-.126-1.217h-5.135l-.395-2.559h5.277l-.142-1.264h3.934l-.095,1.264h5.436l-.3,2.559Z" transform="translate(-434.355 -161.71)" fill="#284582"/>
    </g>
    <g id="グループ_33" data-name="グループ 33" transform="translate(81.511 181.293)">
      <g id="グループ_32" data-name="グループ 32" transform="translate(0 0)">
        <path id="パス_109" data-name="パス 109" d="M92.968,223.305h14.808a5,5,0,0,1,3.42,8.648l-3.966,3.695c-6.18,4.217-11.831,7.817-17.522,11.358a5,5,0,0,1-2.641.755h-2.39a5,5,0,0,1-2.822-9.128q2.236-1.529,4.461-3.072A5,5,0,0,1,86,228.471l3.306-3.572A5,5,0,0,1,92.968,223.305Z" transform="translate(-84.677 -226.034)" fill="#2a2e2e"/>
        <path id="パス_110" data-name="パス 110" d="M145.651,239.324h10.7a5,5,0,0,1,3.818,8.228l-1.986,2.342a5,5,0,0,1-3.776,1.76,5,5,0,0,1-1.126,4L152.132,257a5,5,0,0,1-3.808,1.761h-9.452a5,5,0,0,1-4.072-7.9l.912-1.278a5.224,5.224,0,0,1,3.365-2.1,5,5,0,0,1,.839-3.7l1.654-2.347A5,5,0,0,1,145.651,239.324Z" transform="translate(-121.034 -236.78)" fill="#2a2e2e"/>
        <path id="パス_111" data-name="パス 111" d="M207.154,224.564h13.755a5,5,0,0,1,4.236,7.658l-2.221,3.519a5,5,0,0,1-3.41,2.253,5,5,0,0,1-.276,4.952l-1.474,2.268a5,5,0,0,1-4.186,2.266H199.43a5,5,0,0,1-4.47-7.241l1.147-2.273a5,5,0,0,1,4.458-2.737h.187a5,5,0,0,1,.1-4.538l1.912-3.524A5,5,0,0,1,207.154,224.564Z" transform="translate(-161.66 -226.878)" fill="#2a2e2e"/>
        <path id="パス_112" data-name="パス 112" d="M279.192,258.06H271.3a5,5,0,0,1-4.81-6.364l.383-1.34a4.99,4.99,0,0,1,1.011-1.876,5,5,0,0,1,.126-1.33l1.2-4.963a5,5,0,0,1,4.85-3.783h2.458a5.006,5.006,0,0,1,.514.026q.129-.007.259-.007h2.439a5.006,5.006,0,0,0,2.287-.119h2.417a5,5,0,0,1,4.425,7.328q-2.6,4.942-5.284,9.833A5,5,0,0,1,279.192,258.06Z" transform="translate(-209.876 -236.096)" fill="#2a2e2e"/>
        <path id="パス_113" data-name="パス 113" d="M338.695,246.024h-.9a5.862,5.862,0,0,1-4.545-2.135,5.694,5.694,0,0,1-1.21-3.947h-1.66a5,5,0,0,1-4.735-6.6q1.62-4.78,3.182-9.581a5,5,0,0,1,4.754-3.452h12.653a5,5,0,0,1,4.576,7.016c-2.391,5.427-4.946,10.742-7.676,16.007A5,5,0,0,1,338.695,246.024Z" transform="translate(-249.508 -224.02)" fill="#2a2e2e"/>
        <path id="パス_114" data-name="パス 114" d="M405.668,220.725a5,5,0,0,1,4.986,5.382l-.283,3.469a5,5,0,0,1-1.185,2.82c-.771.9-1.394,1.616-2,2.3.7.84,1.448,1.7,2.429,2.821a5,5,0,0,1-3.758,8.3h-2.3a5,5,0,0,1-3.191-1.15c-.614-.509-1.136-.945-1.616-1.349-.379.357-.79.742-1.262,1.18a5,5,0,0,1-3.405,1.339h-2.64a5,5,0,0,1-3.759-8.3q1.5-1.713,2.959-3.449a5,5,0,0,1-4.25-4.839l-.061-3.451a5,5,0,0,1,5-5.07Z" transform="translate(-290.394 -224.303)" fill="#2a2e2e"/>
        <path id="パス_115" data-name="パス 115" d="M452.806,216.4h4.125a5,5,0,0,1,4.216,2.31h1.35a5,5,0,0,1,4.938,4.217q1.167,7.361,2.171,14.742a5,5,0,0,1-4.954,5.674H451.573a5,5,0,0,1-4.846-3.768q-1.869-7.355-3.562-14.748a5,5,0,0,1,4.874-6.118h.553a5,5,0,0,1,4.215-2.311Z" transform="translate(-328.439 -221.404)" fill="#2a2e2e"/>
        <path id="パス_116" data-name="パス 116" d="M509.383,216.886h3.045a5,5,0,0,1,1.249.158h1.977a5,5,0,0,1,4.739,3.406l.63,1.892a5,5,0,0,1,.356.824l1.091,3.358a5,5,0,0,1-.2,3.579c.437.68.909,1.411,1.469,2.275a5,5,0,0,1,.652,1.071l1.334,2.982a5,5,0,0,1-4.564,7.043h-1.6a5,5,0,0,0-2.667,0,8.91,8.91,0,0,1-2.231-.338,5,5,0,0,1-1.858.358h-1.643a5,5,0,0,0-2.717-.02H506.8a5,5,0,0,1-4.766-3.488L501.087,237a5,5,0,0,1-.18-.779,4.994,4.994,0,0,1-1.739-2.165q-2.109-5.052-4.155-10.128a5,5,0,0,1,4.637-6.87h7.824a5.008,5.008,0,0,0,1.909-.177Z" transform="translate(-363.063 -221.727)" fill="#2a2e2e"/>
        <path id="パス_117" data-name="パス 117" d="M564.99,216.585h.061l3.229.04a5,5,0,0,1,4.434,2.809l.236.489h.067a5,5,0,0,1,4.461,2.742q3.477,6.868,6.783,13.814a5,5,0,0,1-4.515,7.149h-1.541a5,5,0,0,0-2.167-.079h-1.6a5,5,0,0,1-1.117-.126q-.138.008-.277.008h-7.607a5,5,0,0,1-4.167-2.236l-.829-1.253q-.108-.164-.2-.334a5.013,5.013,0,0,1-.3-.442l-.661-1.1a5,5,0,0,1-.522-.685l-4.1-6.545-.056-.092q-.109-.146-.207-.3l-1.719-2.709a5,5,0,0,1-.737-2.081l-.722-1.171a5,5,0,0,1,4.261-7.615h7.873A5,5,0,0,1,564.99,216.585Z" transform="translate(-400.514 -221.525)" fill="#2a2e2e"/>
        <path id="パス_118" data-name="パス 118" d="M627.741,243.852h-1.583a5,5,0,0,1-3.883-1.85l-2.747-3.4h-.176a5,5,0,0,1-3.831-1.787l-1.942-2.325a5,5,0,0,1-.426-.6q-.169-.16-.323-.336-3.221-3.677-6.385-7.4a7.273,7.273,0,0,1,6.408-9.007h2.9q.2-.019.4-.019h2.975a5,5,0,0,1,3.231,1.184h4.747a5,5,0,0,1,4.04,2.054q5.636,7.727,11.113,15.564a5,5,0,0,1-4.1,7.864,9.741,9.741,0,0,1-1.818-.209,5,5,0,0,1-1.429.209,11.752,11.752,0,0,1-4.178-.941A5,5,0,0,1,627.741,243.852Z" transform="translate(-437.264 -221.888)" fill="#2a2e2e"/>
        <path id="パス_119" data-name="パス 119" d="M664.328,217.484H680.8a5,5,0,0,1,3.635,1.566q7.881,8.342,15.629,16.8a5,5,0,0,1-3.688,8.376h-15.2a5,5,0,0,1-3.5-1.425q-8.525-8.334-16.91-16.805a5,5,0,0,1,3.554-8.517Z" transform="translate(-473.538 -222.129)" fill="#2a2e2e"/>
      </g>
    </g>
    <g id="グループ_35" data-name="グループ 35" transform="translate(79.958 179.648)">
      <g id="グループ_34" data-name="グループ 34" transform="translate(0 0)">
        <path id="パス_120" data-name="パス 120" d="M101.12,226.977q-9.286,5.543-18.739,10.783H79.958q8.86-5.341,17.58-10.9H87.06c1.6-1.422,2.4-2.133,4.012-3.555h14.621C103.875,224.774,102.961,225.508,101.12,226.977Z" transform="translate(-79.958 -221.034)" fill="#982b39"/>
        <path id="パス_121" data-name="パス 121" d="M151.461,241.655H147.47c-2.331,2.307-3.5,3.46-5.865,5.766h4.127l-1.331,1.343h-9.59c.467-.537.7-.805,1.169-1.343h4.085c1.954-2.306,2.938-3.459,4.918-5.766h-3.911c.8-.932,1.206-1.4,2.015-2.33h10.676C152.846,240.257,152.385,240.723,151.461,241.655Z" transform="translate(-116.756 -231.781)" fill="#982b39"/>
        <path id="パス_122" data-name="パス 122" d="M217.137,228.061H203.753c.93-1.4,1.4-2.1,2.341-3.5h13.594C218.675,225.963,218.165,226.662,217.137,228.061Zm-6.07,9.419H196.743c.563-.9.846-1.35,1.415-2.251h14.6C212.085,236.13,211.747,236.58,211.067,237.48Z" transform="translate(-158.304 -221.879)" fill="#982b39"/>
        <path id="パス_123" data-name="パス 123" d="M271.165,243.281c.613-1.951.931-2.926,1.588-4.878H275.2c-.9,1.951-1.341,2.927-2.228,4.878Zm6.034,4.779h-8c.193-.53.289-.794.484-1.323h6.886q2.084-4.207,4.133-8.432h2.41Q280.2,243.215,277.2,248.06Zm-1.566-4.779h-1.874c.882-1.943,1.325-2.915,2.214-4.858h2.433C277.309,240.366,276.754,241.338,275.633,243.281Z" transform="translate(-206.908 -231.097)" fill="#982b39"/>
        <path id="パス_124" data-name="パス 124" d="M338.158,236.024h-1.823q2.46-6.074,4.677-12.243H335.6c-1.22,2.465-1.85,3.7-3.153,6.161H330.01q1.876-4.806,3.688-9.637h12.466C343.688,225.657,341.024,230.87,338.158,236.024Z" transform="translate(-247.706 -219.022)" fill="#982b39"/>
        <path id="パス_125" data-name="パス 125" d="M405.351,224.142c-1.781,2.125-2.735,3.188-4.769,5.312,2,2.543,3.078,3.814,5.369,6.358H403.62c-2.119-1.722-3.132-2.582-5.063-4.3-1.733,1.73-2.641,2.595-4.541,4.325h-2.678c3.389-3.775,6.567-7.62,9.594-11.691h-9.481c-.007-1.367-.008-2.05,0-3.417h14.134C405.5,222.092,405.452,222.775,405.351,224.142Z" transform="translate(-288.849 -219.303)" fill="#982b39"/>
        <path id="パス_126" data-name="パス 126" d="M447.628,218.716h5.179c-.222-.924-.331-1.386-.551-2.31h4.052c.2.924.305,1.386.508,2.31H461.9q1.533,7.3,2.874,14.633H451.509Q449.464,226.057,447.628,218.716Zm3.868,3.041c.133.75.2,1.126.332,1.876h8.106l-.512-1.876Zm9.026,4.028h-8.313c.115.648.171.972.286,1.62h8.469Zm1.538,5.628c-.222-.813-.334-1.22-.557-2.034h-8.659c.144.813.216,1.22.36,2.033Z" transform="translate(-326.611 -216.406)" fill="#982b39"/>
        <path id="パス_127" data-name="パス 127" d="M516.554,223.047H513.92c1.992,2.828,3.01,4.242,5.093,7.069h-1.794c-1.716-1.848-2.554-2.772-4.191-4.621-.224,1.864-.369,2.8-.717,4.661h-2.045c.047-2.844.02-4.265-.135-7.109h-2.1c-.211-.49-.317-.735-.528-1.225a81.564,81.564,0,0,1-.137,8.294h-2c-.1-1.809-.16-2.713-.318-4.522H503.9c.165.616.247.924.41,1.541h-1.371q-2.392-5.021-4.711-10.072h7.692c.44,1.067.66,1.6,1.1,2.666H509.1c-.529-1.138-.794-1.706-1.323-2.844h2.993c.489,1.138.731,1.706,1.212,2.844h3.2C515.737,221.056,516.011,221.719,516.554,223.047Zm-8.545,10.427h-1.666l-1.128-2.982h2.22C507.674,231.684,507.788,232.281,508.01,233.474Zm-4.779-10.368c.069.276.1.415.171.691h1.494c-.034-.276-.051-.415-.086-.691Zm-.832-3c.093.331.141.5.233.829h1.948c-.04-.332-.061-.5-.1-.829Zm10.035,13.389h-1.666c-.632-1.2-.947-1.8-1.571-3h2.2C511.815,231.692,512.023,232.292,512.433,233.493Zm4.146-.019h-1.666c-.691-1.193-1.034-1.789-1.716-2.982h2.221C515.887,231.684,516.119,232.281,516.58,233.474Zm2.706,0c-.876-1.193-1.309-1.789-2.168-2.982h2.2l1.592,2.982ZM514.9,219.255h-2.386c-.419-.884-.629-1.327-1.051-2.212h2.5C514.338,217.928,514.526,218.37,514.9,219.255Z" transform="translate(-360.555 -216.727)" fill="#982b39"/>
        <path id="パス_128" data-name="パス 128" d="M562.581,222.746l.3.455h2.511c1.754,2.6,2.63,3.9,4.377,6.5h-2.519l.352.533h2.618l.918,1.363h-2.615l.392.593h2.61l.857,1.244h-7.718c-.38-.5-.568-.746-.946-1.243h3.037l-.442-.593h-3.039c-.38-.545-.57-.818-.949-1.363h2.953l-.422-.533h-3.019c-1.9-2.6-2.842-3.9-4.695-6.5h2.84l-.34-.455H556.8c-.788-1.074-1.178-1.611-1.956-2.685h2.825l-.479-.651H554.92c-.728-1.019-1.09-1.529-1.81-2.548h7.659l1.749,2.548h-2.175l.429.651h2.472l1.853,2.686Zm-1.1,2.469h-.99l.483.75h1.077Zm1.723,2.291h-1.26l.463.75h1.372Zm1.9-2.291h-.87l.516.75h.9Zm1.617,2.291h-.935l.5.75h.984Zm12.493,6.122h-1.564q-3.718-5.468-7.49-10.9h-.883q3.161,5.366,6.166,10.822h-1.628q-3.6-5.422-7.228-10.822h-1.018l-1.951-2.8h1.077c-.9-1.335-1.354-2-2.259-3.338l3.178.04c.806,1.319,1.2,1.978,2,3.3h3.173Q575.116,226.7,579.209,233.628Z" transform="translate(-397.374 -216.526)" fill="#982b39"/>
        <path id="パス_129" data-name="パス 129" d="M637.5,233.793h-1.691q-5.741-6.261-11.526-12.481h-.15q5.122,6.169,10.071,12.481h-1.82q-5.134-6.292-10.394-12.48h-.338q3.92,4.956,7.712,10.012h-1.731q-4.043-5.036-8.162-10.012h-.319c1.159,1.509,1.733,2.263,2.871,3.772h-2.1l-1.494-1.7h-.5l2.51,2.9h1.355c.816.924,1.225,1.386,2.041,2.311h-1.414c1.808,2.1,2.71,3.151,4.513,5.253h-1.605c-2-2.1-3-3.152-4.976-5.253h-2.58c-.9-.924-1.348-1.386-2.24-2.311h2.653c-1.085-1.161-1.625-1.742-2.7-2.9H614.9c.676.75,1.015,1.125,1.693,1.876h-2.03q-3.678-3.644-7.3-7.346h2.7c.878.979,1.319,1.469,2.2,2.448h.5c-1.188-1.288-1.78-1.931-2.961-3.219h2.835c1.114,1.288,1.671,1.931,2.783,3.219h.464c-1.133-1.3-1.7-1.943-2.835-3.238h2.924c.377.474.564.711.939,1.185h7.114Q630.8,225.979,637.5,233.793Z" transform="translate(-433.703 -216.889)" fill="#982b39"/>
        <path id="パス_130" data-name="パス 130" d="M660.138,217.485h16.2q9.532,8.3,18.93,16.746H679.841Q669.917,225.941,660.138,217.485Zm6.929,3.357q6.368,5.715,12.751,11.414l11.03.1q-6.731-5.778-13.483-11.533Zm8.18,3.712-.847-.73H671.56c-.793-.671-1.188-1.007-1.979-1.679l2.843.02-.87-.75h2.4l.858.77,3,.02c.738.647,1.108.972,1.845,1.619h-3l.809.73h3.722l1.587,1.383h-9.45l-1.61-1.383Zm7.863,4.523,1.2.572H686.3l1.125.908-1.1.02c1.2.553,1.8.829,3.011,1.382l-1.359-.019c-2.487-.964-3.713-1.446-6.13-2.41.995.948,1.491,1.422,2.482,2.37H683.2l-1.486-1.165c-.043.466-.067.7-.125,1.165l-1.059.019c-.439-1.137-.67-1.706-1.16-2.843h-1.931c-1.249-1.074-1.872-1.612-3.117-2.686h8.484c1.223,1.074,1.834,1.612,3.053,2.686Zm-5.136-.809h5.637l-.8-.712H677.14Z" transform="translate(-469.174 -217.13)" fill="#982b39"/>
      </g>
    </g>
  </g>
</svg>
