<?xml version="1.0" standalone="no"?>
<!DOCTYPE svg PUBLIC "-//W3C//DTD SVG 20010904//EN"
 "http://www.w3.org/TR/2001/REC-SVG-20010904/DTD/svg10.dtd">
<svg version="1.0" xmlns="http://www.w3.org/2000/svg"
 width="96.000000pt" height="96.000000pt" viewBox="0 0 96.000000 96.000000"
 preserveAspectRatio="xMidYMid meet">
<metadata>
Created by potrace 1.14, written by Peter Selinger 2001-2017
</metadata>
<g transform="translate(0.000000,96.000000) scale(0.100000,-0.100000)"
fill="#000000" stroke="none">
<path d="M615 761 c-59 -29 -115 -37 -311 -46 -44 -2 -63 -10 -130 -56 -105
-72 -128 -114 -119 -214 9 -95 9 -114 0 -157 -4 -24 -3 -38 3 -38 10 0 21 53
23 110 l1 35 10 -30 c8 -21 8 -45 0 -85 -14 -65 -15 -100 -4 -117 11 -18 63
-24 100 -12 35 12 41 29 16 53 -19 19 -13 58 16 101 l20 30 0 -61 c0 -76 12
-89 76 -81 58 6 73 20 51 45 -11 12 -16 33 -15 61 1 40 4 44 49 67 27 13 53
24 58 24 15 0 21 -28 11 -57 -5 -15 -12 -48 -14 -73 -2 -25 -6 -55 -9 -67 -7
-27 11 -39 71 -49 34 -5 42 -3 51 14 8 15 7 23 -4 32 -17 14 -20 51 -5 66 5 5
13 26 17 47 l8 38 28 -54 c15 -30 27 -68 27 -85 0 -28 4 -32 28 -34 93 -5 113
7 79 48 -13 16 -27 43 -30 59 -16 79 -33 144 -40 151 -17 17 3 124 23 124 5 0
32 -9 62 -21 l53 -20 31 -95 c25 -78 29 -96 17 -105 -10 -9 -13 -8 -13 5 0 19
-13 20 -42 5 -20 -11 -20 -12 7 -35 33 -28 66 -31 87 -6 22 24 15 194 -11 282
-11 36 -22 77 -25 91 -7 32 -59 93 -102 120 -43 26 -79 24 -149 -10z m-518
-313 c-3 -8 -6 -5 -6 6 -1 11 2 17 5 13 3 -3 4 -12 1 -19z m3 -27 c0 -6 -4
-12 -8 -15 -5 -3 -9 1 -9 9 0 8 4 15 9 15 4 0 8 -4 8 -9z"/>
</g>
</svg>
