<?xml version="1.0" standalone="no"?>
<!DOCTYPE svg PUBLIC "-//W3C//DTD SVG 20010904//EN"
 "http://www.w3.org/TR/2001/REC-SVG-20010904/DTD/svg10.dtd">
<svg version="1.0" xmlns="http://www.w3.org/2000/svg"
 width="320.000000pt" height="320.000000pt" viewBox="0 0 320.000000 320.000000"
 preserveAspectRatio="xMidYMid meet">
<metadata>
Created by potrace 1.14, written by Peter Selinger 2001-2017
</metadata>
<g transform="translate(0.000000,320.000000) scale(0.100000,-0.100000)"
fill="#000000" stroke="none">
<path d="M2245 2711 c-60 -18 -140 -55 -232 -109 -99 -59 -157 -74 -293 -77
-118 -2 -210 -9 -290 -21 -43 -6 -77 -10 -160 -19 -36 -4 -74 -9 -85 -11 -22
-5 -184 -5 -254 0 -78 5 -156 -33 -373 -178 -297 -198 -360 -263 -426 -441
-29 -78 -38 -288 -17 -405 52 -295 53 -315 21 -416 -41 -129 -35 -202 15 -171
16 10 23 32 35 107 2 14 6 39 9 55 5 32 11 117 20 275 8 150 16 253 20 275 2
11 4 32 4 48 1 27 16 38 20 15 6 -35 4 -138 -3 -178 -16 -94 -15 -183 5 -245
26 -84 26 -127 -4 -225 -59 -192 -71 -346 -32 -424 35 -70 61 -81 183 -81 120
0 230 27 278 68 26 23 26 23 10 62 -9 22 -32 54 -50 70 -79 72 -80 94 -17 243
40 93 82 162 121 197 l22 19 -8 -84 c-5 -47 -8 -134 -8 -195 2 -184 28 -214
193 -220 144 -5 281 36 294 87 7 24 -15 62 -56 97 -53 47 -68 85 -53 135 7 23
14 75 15 116 1 41 6 80 9 87 8 13 52 38 222 123 166 83 155 83 179 7 l19 -64
-33 -109 c-28 -94 -33 -125 -34 -225 -2 -93 -7 -130 -26 -186 -25 -75 -26
-137 -3 -158 7 -6 40 -22 73 -33 193 -68 316 -69 349 -3 20 39 10 75 -39 147
-25 36 -45 76 -45 89 0 12 22 72 48 131 48 108 56 135 68 224 9 76 14 77 38 7
13 -36 49 -106 80 -155 84 -134 89 -150 82 -263 l-6 -96 27 -12 c91 -42 300
-48 371 -12 39 20 42 24 42 63 0 39 -5 47 -70 109 -38 37 -70 72 -70 78 0 44
-25 176 -42 221 -11 30 -28 76 -38 101 -10 26 -21 75 -24 110 -11 103 -13 110
-51 209 -32 85 -35 103 -31 165 6 94 36 170 104 262 l24 33 33 -29 c18 -16 82
-47 142 -70 209 -81 214 -85 233 -179 18 -87 109 -359 142 -426 24 -48 29 -69
26 -106 -4 -43 -41 -110 -60 -110 -4 0 -8 22 -8 50 0 53 -15 70 -63 70 -50 0
-147 -60 -147 -91 0 -24 26 -42 63 -44 25 -1 33 -7 35 -23 5 -35 57 -79 102
-87 97 -16 209 46 231 128 12 46 7 122 -15 232 -9 43 -12 99 -9 145 9 145 10
222 1 278 -10 67 -53 223 -73 266 -8 17 -34 110 -58 208 -41 163 -48 181 -92
245 -63 89 -207 232 -285 282 -96 62 -207 77 -325 42z"/>
</g>
</svg>
