<svg xmlns="http://www.w3.org/2000/svg" width="333.684" height="34.28" viewBox="0 0 333.684 34.28"><defs><style>.a{fill:#383c3c;}.b{fill:#fffce8;}</style></defs><g transform="translate(-29.1 -283.222)"><path class="a" d="M14.892-24.922l-7.344-1.36-.918,5,7.344,1.394Zm15.776,10.4-3.706-3.468A80.321,80.321,0,0,1,5.644-2.278L7.99,2.21C17.272-2.652,24.854-8.228,30.668-14.518ZM13.4-16.8l-7.344-1.36-.952,5,7.344,1.394Zm38.59-5.3L45.56-26.86l-3.026,4.114,6.46,4.726Zm15.13,7.242-3.672-3.5A81.581,81.581,0,0,1,43.826-3.434l2.448,4.488A85.728,85.728,0,0,0,67.116-14.858ZM97.682-12.92a4.338,4.338,0,0,0-1.326-3.2,4.338,4.338,0,0,0-3.2-1.326,4.338,4.338,0,0,0-3.2,1.326,4.338,4.338,0,0,0-1.326,3.2,4.338,4.338,0,0,0,1.326,3.2A4.338,4.338,0,0,0,93.16-8.4a4.338,4.338,0,0,0,3.2-1.326A4.338,4.338,0,0,0,97.682-12.92Zm43.112-12.546-5-1.054a42.37,42.37,0,0,1-4.9,13.362,41.355,41.355,0,0,1-9.418,10.54l3.23,3.944A45.393,45.393,0,0,0,135.286-10.54,48.427,48.427,0,0,0,140.794-25.466ZM182.954-1.19,172.89-12.512a89.138,89.138,0,0,0,6.528-13.056h-20.3v5.1h12.444A75.671,75.671,0,0,1,157.488-1.292l3.6,3.6a88.586,88.586,0,0,0,8.874-10.438l9.18,10.336Zm36.074-19.176L204.85-27.778l-9.826,12.444,4.012,3.128,7.174-9.078,6.188,3.2c-.782,1.632-1.666,3.23-2.584,4.76l-4.488-3.3-2.992,4.114,4.692,3.468a45.21,45.21,0,0,1-7.888,8.6L202.4,3.5Q212.143-4.607,219.028-20.366ZM260.1-7.99l-3.5-3.74a36.089,36.089,0,0,1-8.874,6.12V-26.146h-5.1V1.564l3.3-.952a32.539,32.539,0,0,0,7.514-3.57A42.65,42.65,0,0,0,260.1-7.99Zm-19.788-15.3-5.066-.68L232.458-2.38l5.066.68Zm56.542-.952-2.414-2.346-2.38,2.448-2.414-2.346-2.38,2.448,2.414,2.346,2.38-2.448,2.448,2.346Zm-15.572-.68-7.344-1.36-.918,5,7.344,1.394Zm15.776,10.4-3.706-3.468A80.321,80.321,0,0,1,272.034-2.278L274.38,2.21C283.662-2.652,291.244-8.228,297.058-14.518ZM279.786-16.8l-7.344-1.36-.952,5,7.344,1.394Zm56,6.018v-4.76H307.9v4.76Z" transform="translate(27 311)"/><path class="b" d="M14.892-24.922l-7.344-1.36-.918,5,7.344,1.394Zm15.776,10.4-3.706-3.468A80.321,80.321,0,0,1,5.644-2.278L7.99,2.21C17.272-2.652,24.854-8.228,30.668-14.518ZM13.4-16.8l-7.344-1.36-.952,5,7.344,1.394Zm38.59-5.3L45.56-26.86l-3.026,4.114,6.46,4.726Zm15.13,7.242-3.672-3.5A81.581,81.581,0,0,1,43.826-3.434l2.448,4.488A85.728,85.728,0,0,0,67.116-14.858ZM97.682-12.92a4.338,4.338,0,0,0-1.326-3.2,4.338,4.338,0,0,0-3.2-1.326,4.338,4.338,0,0,0-3.2,1.326,4.338,4.338,0,0,0-1.326,3.2,4.338,4.338,0,0,0,1.326,3.2A4.338,4.338,0,0,0,93.16-8.4a4.338,4.338,0,0,0,3.2-1.326A4.338,4.338,0,0,0,97.682-12.92Zm43.112-12.546-5-1.054a42.37,42.37,0,0,1-4.9,13.362,41.355,41.355,0,0,1-9.418,10.54l3.23,3.944A45.393,45.393,0,0,0,135.286-10.54,48.427,48.427,0,0,0,140.794-25.466ZM182.954-1.19,172.89-12.512a89.138,89.138,0,0,0,6.528-13.056h-20.3v5.1h12.444A75.671,75.671,0,0,1,157.488-1.292l3.6,3.6a88.586,88.586,0,0,0,8.874-10.438l9.18,10.336Zm36.074-19.176L204.85-27.778l-9.826,12.444,4.012,3.128,7.174-9.078,6.188,3.2c-.782,1.632-1.666,3.23-2.584,4.76l-4.488-3.3-2.992,4.114,4.692,3.468a45.21,45.21,0,0,1-7.888,8.6L202.4,3.5Q212.143-4.607,219.028-20.366ZM260.1-7.99l-3.5-3.74a36.089,36.089,0,0,1-8.874,6.12V-26.146h-5.1V1.564l3.3-.952a32.539,32.539,0,0,0,7.514-3.57A42.65,42.65,0,0,0,260.1-7.99Zm-19.788-15.3-5.066-.68L232.458-2.38l5.066.68Zm56.542-.952-2.414-2.346-2.38,2.448-2.414-2.346-2.38,2.448,2.414,2.346,2.38-2.448,2.448,2.346Zm-15.572-.68-7.344-1.36-.918,5,7.344,1.394Zm15.776,10.4-3.706-3.468A80.321,80.321,0,0,1,272.034-2.278L274.38,2.21C283.662-2.652,291.244-8.228,297.058-14.518ZM279.786-16.8l-7.344-1.36-.952,5,7.344,1.394Zm56,6.018v-4.76H307.9v4.76Z" transform="translate(24 314)"/></g></svg>